<svg width="56" height="56" viewBox="0 0 56 56" fill="none" xmlns="http://www.w3.org/2000/svg">
<g clip-path="url(#clip0_1_137)">
<circle cx="28" cy="28.0001" r="27" fill="white" stroke="#0FABB5" stroke-width="2"/>
<path d="M17.0368 39.5939V30.9559H14.1248V29.2199H22.0488V30.9559H19.1088V39.5939H17.0368ZM27.4073 39.7899C24.6633 39.7899 22.7733 37.7319 22.7733 34.3719C22.7733 30.9979 24.6633 29.0379 27.4073 29.0379C30.1513 29.0379 32.0413 31.0119 32.0413 34.3719C32.0413 37.7319 30.1513 39.7899 27.4073 39.7899ZM27.4073 37.9979C28.9473 37.9979 29.9273 36.5839 29.9273 34.3719C29.9273 32.1459 28.9473 30.8159 27.4073 30.8159C25.8673 30.8159 24.8873 32.1459 24.8873 34.3719C24.8873 36.5839 25.8673 37.9979 27.4073 37.9979ZM34.0647 39.5939V29.2199H37.4667C39.7627 29.2199 41.5267 30.0319 41.5267 32.4819C41.5267 34.8479 39.7487 35.9119 37.5227 35.9119H36.1367V39.5939H34.0647ZM36.1367 34.2739H37.3827C38.8107 34.2739 39.4967 33.6719 39.4967 32.4819C39.4967 31.2779 38.7407 30.8719 37.3127 30.8719H36.1367V34.2739Z" fill="#0FABB5"/>
<path d="M27.4167 13L32.9737 22.7108H21.8597L27.4167 13Z" fill="#0FABB5"/>
</g>
<defs>
<clipPath id="clip0_1_137">
<rect width="56" height="56.0001" fill="white"/>
</clipPath>
</defs>
</svg>
